<svg width="1919" height="204" viewBox="0 0 1919 204" fill="none" xmlns="http://www.w3.org/2000/svg">
<path d="M1693.91 199.801H1919V46.0347L1693.91 199.801ZM1793.47 46.0347L1660.97 199.801L1827.93 85.8627L1793.47 46.0347ZM1660.96 46.0347V171.595L1729.14 92.5133L1660.96 46.0347Z" fill="#FE3D40"/>
<path d="M401.118 59.13V46.0345H364.756V199.801H401.421V115.422C401.421 92.2207 414.636 77.2297 435.086 77.2297C443.209 77.2297 452.2 79.1577 458.309 82.1472L466.996 45.937C459.825 43.3374 452.211 42.1243 442.581 42.1243C425.164 42.1243 410.942 47.9734 401.118 59.13ZM832.911 168.92C807.478 168.92 789.714 150.008 789.714 122.928C789.714 95.8276 807.478 76.9156 832.911 76.9156C858.354 76.9156 876.096 95.8276 876.096 122.928C876.096 150.008 858.354 168.92 832.911 168.92ZM874.071 62.1087C864.149 49.6523 850.36 42.1243 829.011 42.1243C785.165 42.1243 752.117 76.8614 752.117 122.928C752.117 168.974 785.165 203.711 829.011 203.711C850.252 203.711 863.987 196.324 874.071 183.369V199.801H910.747V46.0345H874.071V62.1087ZM1164.84 168.92C1139.41 168.92 1121.66 150.008 1121.66 122.928C1121.66 95.8276 1139.41 76.9156 1164.84 76.9156C1190.26 76.9156 1208.03 95.8276 1208.03 122.928C1208.03 150.008 1190.27 168.92 1164.84 168.92ZM1206 62.1087C1196.07 49.6523 1182.27 42.1243 1160.93 42.1243C1117.11 42.1243 1084.04 76.8614 1084.04 122.928C1084.04 168.974 1117.11 203.711 1160.93 203.711C1182.17 203.711 1195.9 196.324 1206 183.369V199.801H1242.67V46.0345H1206V62.1087ZM1528.13 168.92C1502.71 168.92 1484.94 150.008 1484.94 122.928C1484.94 95.8276 1502.71 76.9156 1528.13 76.9156C1553.55 76.9156 1571.33 95.8276 1571.33 122.928C1571.33 150.008 1553.56 168.92 1528.13 168.92ZM1569.28 62.1087C1559.37 49.6523 1545.58 42.1243 1524.22 42.1243C1480.39 42.1243 1447.34 76.8614 1447.34 122.928C1447.34 168.974 1480.39 203.711 1524.22 203.711C1545.47 203.711 1559.19 196.324 1569.28 183.369V199.801H1605.95V46.0345H1569.28V62.1087ZM1352.88 168.92C1327.45 168.92 1309.69 150.008 1309.69 122.928C1309.69 95.8276 1327.45 76.9156 1352.88 76.9156C1378.32 76.9156 1396.07 95.8276 1396.07 122.928C1396.07 150.008 1378.31 168.92 1352.88 168.92ZM1356.79 42.1243C1338.63 42.1243 1323.22 48.4391 1311.88 60.4839V0H1275.21V199.801H1311.88V183.38C1321.89 196.746 1337.65 203.733 1356.79 203.733C1400.62 203.733 1433.66 168.985 1433.66 122.928C1433.66 76.8722 1400.62 42.1243 1356.79 42.1243ZM1089.46 46.0453H1042.98L993.566 102.955H980.069V0H943.242V199.79H980.069V136.641H993.371L1043.25 199.79H1089.77L1024.91 118.607L1089.46 46.0453ZM670.49 42.1351C653.116 42.1351 629.839 46.5761 615.747 67.2212C604.536 51.2337 585.884 42.1351 564.015 42.1351C550.768 42.1351 532.939 45.4496 520.049 60.4514V46.0345H483.536V199.811H520.363V114.783C520.363 88.852 538.831 77.2297 557.137 77.2297C578.031 77.2297 590.011 90.8126 590.011 114.48V199.811H626.828V114.783C626.828 88.852 645.306 77.2297 663.612 77.2297C684.506 77.2297 696.486 90.8126 696.486 114.48V199.811H733.303V103.691C733.303 67.4487 707.48 42.1243 670.479 42.1243M261.032 168.92C235.014 168.92 216.135 149.574 216.135 122.928C216.135 96.2717 235.014 76.9156 261.032 76.9156C287.147 76.9156 306.102 96.2717 306.102 122.928C306.102 149.574 287.136 168.92 261.032 168.92ZM261.043 42.1243C214.001 42.1243 178.527 76.8614 178.527 122.928C178.527 168.974 214.001 203.722 261.032 203.722C308.16 203.722 343.71 168.974 343.71 122.918C343.71 76.8614 308.16 42.1135 261.032 42.1135M80.7825 168.93C55.3606 168.93 37.6075 150.018 37.6075 122.939C37.6075 95.8493 55.3714 76.9264 80.7933 76.9264C106.215 76.9264 123.979 95.8493 123.979 122.939C123.979 150.018 106.204 168.93 80.7825 168.93ZM121.954 60.7656C110.58 48.5475 95.1127 42.1351 76.8722 42.1351C33.0474 42.1243 0 76.8614 0 122.928C0 168.974 33.0474 203.722 76.8722 203.722C99.6187 203.722 111.176 195.999 121.954 183.358V199.801H158.619V0H121.954V60.7656Z" fill="#003596"/>
</svg>
