<svg width="1004" height="316" viewBox="0 0 1004 316" fill="none" xmlns="http://www.w3.org/2000/svg">
<path d="M957.063 315.547H46.9365C34.5572 315.538 22.6866 310.621 13.9265 301.874C5.16641 293.127 0.231479 281.264 0.203369 268.885L0.203369 47.1506C0.222117 34.7652 5.15292 22.893 13.914 14.1385C22.6751 5.38404 34.5511 0.462242 46.9365 0.452881L957.063 0.452881C969.449 0.462242 981.325 5.38404 990.086 14.1385C998.847 22.893 1003.78 34.7652 1003.8 47.1506V268.885C1003.77 281.264 998.833 293.127 990.073 301.874C981.313 310.621 969.443 315.538 957.063 315.547ZM46.9365 35.2195C43.7783 35.2195 40.7489 36.4716 38.5124 38.7015C36.2759 40.9313 35.0147 43.957 35.0054 47.1152V268.885C35.0147 272.043 36.2759 275.069 38.5124 277.299C40.7489 279.528 43.7783 280.781 46.9365 280.781H957.063C960.222 280.781 963.251 279.528 965.487 277.299C967.724 275.069 968.985 272.043 968.995 268.885V47.1506C968.985 43.9924 967.724 40.9667 965.487 38.7369C963.251 36.507 960.222 35.2549 957.063 35.2549L46.9365 35.2195ZM781.744 174.746H899.461V139.979H781.744V108.293H921.058V71.8271H733.7V244.385H921.058V207.884H781.744V174.746ZM361.96 174.746H479.607V139.979H361.96V108.293H501.274V71.8271H313.917V244.385H501.274V207.884H361.96V174.746ZM708.033 108.293V71.8271H527.721V108.293H645.297L527.721 207.884V244.385H713.591V207.884H590.032L708.033 108.293ZM243.605 201.016C243.729 202.034 243.578 203.068 243.167 204.008C242.756 204.948 242.1 205.761 241.268 206.362C240.843 206.751 239.604 207.884 233.621 207.884H141.571C136.119 207.884 131.233 207.353 130.95 200.98V115.126C130.95 108.789 136.013 108.258 141.571 108.258H283.434V71.8271H129.604C92.4658 71.8271 82.6236 100.15 82.6236 115.161V201.016C82.6236 215.992 92.4304 244.35 129.604 244.35H242.295C258.474 244.35 267.857 239.358 274.477 233.339C279.054 229.304 282.693 224.317 285.139 218.727C287.586 213.137 288.78 207.08 288.639 200.98V140.05H178.71V174.675H243.605V201.016Z" fill="#002364"/>
</svg>
